<?xml version="1.0" encoding="UTF-8"?>
<svg
      version="1.1"
      xmlns="http://www.w3.org/2000/svg"
      height="512"
      width="512"
    >
      <path
        d="M0 0 C1.01790619 0.00215515 2.03581238 0.0043103 3.08456421 0.00653076 C17.69363523 0.05620146 32.02575853 0.30709809 46.375 3.3125 C47.34985352 3.51117676 48.32470703 3.70985352 49.32910156 3.91455078 C97.7109774 14.03517194 141.69928269 35.9516877 177.375 70.3125 C178.3640332 71.26068604 178.3640332 71.26068604 179.37304688 72.22802734 C188.86130305 81.37247479 197.6012044 90.66984009 205.375 101.3125 C206.23306152 102.46355017 207.09113451 103.61459177 207.94921875 104.765625 C213.98736829 112.95680614 219.34595521 121.47054105 224.375 130.3125 C224.73948242 130.94430176 225.10396484 131.57610352 225.47949219 132.22705078 C247.08534998 169.97532572 256.85198095 212.74189997 256.6875 255.9375 C256.68534485 256.95540619 256.6831897 257.97331238 256.68096924 259.02206421 C256.63129854 273.63113523 256.38040191 287.96325853 253.375 302.3125 C253.07698486 303.77478027 253.07698486 303.77478027 252.77294922 305.26660156 C242.65232806 353.6484774 220.7358123 397.63678269 186.375 433.3125 C185.74287598 433.97185547 185.11075195 434.63121094 184.45947266 435.31054688 C175.31502521 444.79880305 166.01765991 453.5387044 155.375 461.3125 C154.22394983 462.17056152 153.07290823 463.02863451 151.921875 463.88671875 C143.73224019 469.92427396 135.22961724 475.30707302 126.375 480.3125 C125.66778809 480.7146875 124.96057617 481.116875 124.23193359 481.53125 C101.09654164 494.5566741 75.92537591 503.30551461 49.9375 508.625 C49.21860596 508.77235596 48.49971191 508.91971191 47.7590332 509.0715332 C33.08339502 511.86090125 18.55831162 512.66142619 3.64770508 512.62817383 C0.70811513 512.6250221 -2.2304558 512.64854926 -5.16992188 512.67382812 C-18.54306192 512.71848737 -31.43916711 511.51301542 -44.625 509.3125 C-46.33055054 509.03031616 -46.33055054 509.03031616 -48.07055664 508.74243164 C-91.33802759 500.97044532 -132.38793216 480.98345309 -165.625 452.3125 C-166.37007813 451.67828125 -167.11515625 451.0440625 -167.8828125 450.390625 C-181.38779833 438.57948485 -194.05918743 425.82889772 -204.625 411.3125 C-205.48149066 410.16255169 -206.33826433 409.01281411 -207.1953125 407.86328125 C-213.23534209 399.67315742 -218.61867614 391.16870382 -223.625 382.3125 C-224.0271875 381.60528809 -224.429375 380.89807617 -224.84375 380.16943359 C-237.8691741 357.03404164 -246.61801461 331.86287591 -251.9375 305.875 C-252.08485596 305.15610596 -252.23221191 304.43721191 -252.3840332 303.6965332 C-255.35789088 288.05024391 -255.99800362 272.57681954 -255.9375 256.6875 C-255.93534485 255.66959381 -255.9331897 254.65168762 -255.93096924 253.60293579 C-255.88129854 238.99386477 -255.63040191 224.66174147 -252.625 210.3125 C-252.42632324 209.33764648 -252.22764648 208.36279297 -252.02294922 207.35839844 C-241.90232806 158.9765226 -219.9858123 114.98821731 -185.625 79.3125 C-184.99287598 78.65314453 -184.36075195 77.99378906 -183.70947266 77.31445312 C-174.56502521 67.82619695 -165.26765991 59.0862956 -154.625 51.3125 C-153.47394983 50.45443848 -152.32290823 49.59636549 -151.171875 48.73828125 C-142.98224019 42.70072604 -134.47961724 37.31792698 -125.625 32.3125 C-124.91778809 31.9103125 -124.21057617 31.508125 -123.48193359 31.09375 C-100.34654164 18.0683259 -75.17537591 9.31948539 -49.1875 4 C-48.46860596 3.85264404 -47.74971191 3.70528809 -47.0090332 3.5534668 C-31.36274391 0.57960912 -15.88931954 -0.06050362 0 0 Z "
        fill="#D7EBFD"
        transform="translate(255.625,-0.3125)"
      />
      <path
        d="M0 0 C1.01790619 0.00215515 2.03581238 0.0043103 3.08456421 0.00653076 C17.69363523 0.05620146 32.02575853 0.30709809 46.375 3.3125 C47.34985352 3.51117676 48.32470703 3.70985352 49.32910156 3.91455078 C97.7109774 14.03517194 141.69928269 35.9516877 177.375 70.3125 C178.3640332 71.26068604 178.3640332 71.26068604 179.37304688 72.22802734 C188.86130305 81.37247479 197.6012044 90.66984009 205.375 101.3125 C206.23306152 102.46355017 207.09113451 103.61459177 207.94921875 104.765625 C213.98736829 112.95680614 219.34595521 121.47054105 224.375 130.3125 C224.73948242 130.94430176 225.10396484 131.57610352 225.47949219 132.22705078 C247.08534998 169.97532572 256.85198095 212.74189997 256.6875 255.9375 C256.68534485 256.95540619 256.6831897 257.97331238 256.68096924 259.02206421 C256.63129854 273.63113523 256.38040191 287.96325853 253.375 302.3125 C253.07698486 303.77478027 253.07698486 303.77478027 252.77294922 305.26660156 C242.65232806 353.6484774 220.7358123 397.63678269 186.375 433.3125 C185.74287598 433.97185547 185.11075195 434.63121094 184.45947266 435.31054688 C175.31502521 444.79880305 166.01765991 453.5387044 155.375 461.3125 C154.22394983 462.17056152 153.07290823 463.02863451 151.921875 463.88671875 C143.73224019 469.92427396 135.22961724 475.30707302 126.375 480.3125 C125.66778809 480.7146875 124.96057617 481.116875 124.23193359 481.53125 C101.09654164 494.5566741 75.92537591 503.30551461 49.9375 508.625 C49.21860596 508.77235596 48.49971191 508.91971191 47.7590332 509.0715332 C33.08339502 511.86090125 18.55831162 512.66142619 3.64770508 512.62817383 C0.70811513 512.6250221 -2.2304558 512.64854926 -5.16992188 512.67382812 C-18.54306192 512.71848737 -31.43916711 511.51301542 -44.625 509.3125 C-46.33055054 509.03031616 -46.33055054 509.03031616 -48.07055664 508.74243164 C-91.33802759 500.97044532 -132.38793216 480.98345309 -165.625 452.3125 C-166.37007813 451.67828125 -167.11515625 451.0440625 -167.8828125 450.390625 C-181.38779833 438.57948485 -194.05918743 425.82889772 -204.625 411.3125 C-205.48149066 410.16255169 -206.33826433 409.01281411 -207.1953125 407.86328125 C-213.23534209 399.67315742 -218.61867614 391.16870382 -223.625 382.3125 C-224.0271875 381.60528809 -224.429375 380.89807617 -224.84375 380.16943359 C-237.8691741 357.03404164 -246.61801461 331.86287591 -251.9375 305.875 C-252.08485596 305.15610596 -252.23221191 304.43721191 -252.3840332 303.6965332 C-255.35789088 288.05024391 -255.99800362 272.57681954 -255.9375 256.6875 C-255.93534485 255.66959381 -255.9331897 254.65168762 -255.93096924 253.60293579 C-255.88129854 238.99386477 -255.63040191 224.66174147 -252.625 210.3125 C-252.42632324 209.33764648 -252.22764648 208.36279297 -252.02294922 207.35839844 C-241.90232806 158.9765226 -219.9858123 114.98821731 -185.625 79.3125 C-184.99287598 78.65314453 -184.36075195 77.99378906 -183.70947266 77.31445312 C-174.56502521 67.82619695 -165.26765991 59.0862956 -154.625 51.3125 C-153.47394983 50.45443848 -152.32290823 49.59636549 -151.171875 48.73828125 C-142.98224019 42.70072604 -134.47961724 37.31792698 -125.625 32.3125 C-124.91778809 31.9103125 -124.21057617 31.508125 -123.48193359 31.09375 C-100.34654164 18.0683259 -75.17537591 9.31948539 -49.1875 4 C-48.46860596 3.85264404 -47.74971191 3.70528809 -47.0090332 3.5534668 C-31.36274391 0.57960912 -15.88931954 -0.06050362 0 0 Z M-52.6875 52.0625 C-53.59322754 52.31854004 -54.49895508 52.57458008 -55.43212891 52.83837891 C-70.55313937 57.21558295 -84.75787896 62.88108312 -98.625 70.3125 C-99.28064941 70.65506836 -99.93629883 70.99763672 -100.61181641 71.35058594 C-116.49200713 79.66453795 -130.14381265 90.58571375 -143.625 102.3125 C-142.17062018 105.7647384 -140.29342721 107.6669843 -137.5 110.125 C-134.54763408 113.00758273 -133.70871842 113.8939079 -132.875 118.0625 C-133.73720272 121.79871179 -134.4553677 123.17085656 -137.625 125.3125 C-139.953125 125.6875 -139.953125 125.6875 -142.625 125.3125 C-145.16015625 123.37890625 -145.16015625 123.37890625 -147.6875 120.875 C-151.54063892 116.93362421 -151.54063892 116.93362421 -156.625 115.3125 C-171.15122473 132.50537468 -183.11525402 150.9013379 -192.625 171.3125 C-192.92647949 171.95316406 -193.22795898 172.59382813 -193.53857422 173.25390625 C-197.71850357 182.28419552 -200.73102705 191.53752244 -203.375 201.125 C-203.65674072 202.13095215 -203.93848145 203.1369043 -204.22875977 204.17333984 C-208.49792542 220.33017627 -210.13304501 236.42097255 -210.01611328 253.09423828 C-210.00000277 255.81203342 -210.01609631 258.5283424 -210.03515625 261.24609375 C-210.05692701 277.98715167 -207.94874013 294.16934962 -203.4375 310.3125 C-203.13706787 311.40353027 -202.83663574 312.49456055 -202.52709961 313.61865234 C-193.65159348 344.87815295 -177.84126459 373.57313452 -155.625 397.3125 C-152.13950718 395.8254613 -149.97206832 393.79401616 -147.3125 391.125 C-143.15297417 387.32926108 -143.15297417 387.32926108 -138.6875 387.1875 C-135.625 388.3125 -135.625 388.3125 -133.625 390.3125 C-132.89792491 393.70551707 -132.62683982 395.08440749 -133.625 398.3125 C-136.63634508 402.01877087 -140.02931939 405.17912118 -143.625 408.3125 C-141.25160656 414.24598359 -135.5127114 417.51026529 -130.625 421.3125 C-129.69042969 422.04984375 -128.75585938 422.7871875 -127.79296875 423.546875 C-114.99449047 433.42148751 -101.27872077 441.52274946 -86.625 448.3125 C-85.92101074 448.64491699 -85.21702148 448.97733398 -84.49169922 449.31982422 C-74.78713577 453.85411924 -64.95740876 457.29818032 -54.625 460.125 C-53.61840332 460.40287354 -52.61180664 460.68074707 -51.57470703 460.96704102 C-35.78113915 465.08911959 -20.27076799 466.8176406 -3.97363281 466.70361328 C-1.2579498 466.68754703 1.45623675 466.70356651 4.171875 466.72265625 C21.3168165 466.74476729 38.09787057 464.65368753 54.6875 460.25 C55.81212646 459.95327393 56.93675293 459.65654785 58.09545898 459.35083008 C87.54261583 451.23196097 114.25394822 436.13054438 137.375 416.3125 C138.10976563 415.68859375 138.84453125 415.0646875 139.6015625 414.421875 C141.19924219 413.05970985 142.78839945 411.68755381 144.375 410.3125 C142.92314698 406.85861808 141.05992432 404.99978203 138.25 402.5625 C135.3944485 399.78482718 133.78926526 398.05436522 133.625 394 C134.375 390.3125 134.375 390.3125 136.0625 388.3125 C138.84640836 387.10864773 140.35843296 386.93377771 143.375 387.3125 C145.9453125 389.2109375 145.9453125 389.2109375 148.5 391.6875 C151.08341987 394.16098711 153.3940147 396.32517646 156.375 398.3125 C181.61526578 370.54820764 198.17447673 336.720728 206.5 300.3125 C206.65879639 299.62542969 206.81759277 298.93835938 206.98120117 298.23046875 C210.05881202 284.26870337 210.85147596 270.62369267 210.875 256.375 C210.87767883 255.41183868 210.88035767 254.44867737 210.88311768 253.45632935 C210.87249934 235.74622495 208.91572258 219.46723224 204.375 202.3125 C204.14006836 201.39871582 203.90513672 200.48493164 203.66308594 199.54345703 C195.23636409 167.64580031 177.8997343 139.02784757 156.375 114.3125 C155.93929688 114.68761719 155.50359375 115.06273438 155.0546875 115.44921875 C153.80978055 116.51897646 152.55942391 117.58241357 151.3046875 118.640625 C150.10964611 119.67600499 148.94118954 120.7441305 147.8203125 121.859375 C144.9377947 124.63282456 143.69218837 125.3125 139.625 125.3125 C136.375 124.3125 136.375 124.3125 134.375 121.3125 C133.79876873 116.90330183 133.83131273 115.02608954 136.5625 111.44140625 C137.490625 110.59449219 138.41875 109.74757812 139.375 108.875 C140.303125 108.01003906 141.23125 107.14507812 142.1875 106.25390625 C143.2703125 105.29291016 143.2703125 105.29291016 144.375 104.3125 C142.82206696 100.28048711 139.99308697 97.93504836 136.75 95.25 C136.17733398 94.77248291 135.60466797 94.29496582 135.01464844 93.80297852 C128.12778796 88.1609652 120.85192747 83.13563978 113.375 78.3125 C112.7154834 77.88582031 112.0559668 77.45914063 111.37646484 77.01953125 C78.53233054 56.06376458 40.82244528 46.15674645 2.12670898 46.07226562 C-0.52588155 46.06263298 -3.17767075 46.03155573 -5.83007812 46 C-21.74335746 45.90066721 -37.36195461 47.62044585 -52.6875 52.0625 Z "
        fill="#1a73e8"
        transform="translate(255.625,-0.3125)"
      />
      <path
        d="M0 0 C1.43279297 1.02480469 1.43279297 1.02480469 2.89453125 2.0703125 C19.77637933 14.41640847 35.13181607 28.48505637 48 45 C48.77601563 45.94746094 49.55203125 46.89492187 50.3515625 47.87109375 C63.26191364 63.95780113 72.66680266 82.20924696 81 101 C81.46744629 102.04969971 81.46744629 102.04969971 81.94433594 103.12060547 C99.62297103 143.7773016 102.32802974 194.15422541 91.51464844 236.95800781 C91.03514051 238.86057153 90.58287921 240.76994497 90.1328125 242.6796875 C83.69604707 268.71156185 72.38744112 293.07677402 57 315 C56.53513184 315.66692871 56.07026367 316.33385742 55.59130859 317.02099609 C48.39755951 327.24031512 40.32445922 336.40334206 31.609375 345.34814453 C30.2817637 346.71079896 28.9672043 348.08615681 27.65625 349.46484375 C12.70713759 364.93472442 -5.94241083 377.23969525 -25 387 C-25.7429834 387.38639648 -26.4859668 387.77279297 -27.25146484 388.17089844 C-49.05690095 399.41042545 -73.28733673 407.1775656 -97.625 410.25 C-98.61462234 410.37507935 -98.61462234 410.37507935 -99.62423706 410.50268555 C-154.60508769 417.30143254 -212.72817167 404.67342617 -258 372 C-258.59312988 371.58057129 -259.18625977 371.16114258 -259.79736328 370.72900391 C-270.69839717 362.99626442 -280.47068176 354.35770018 -290 345 C-290.61625244 344.39768555 -291.23250488 343.79537109 -291.86743164 343.17480469 C-297.01009322 338.10014411 -301.50583163 332.65466908 -306 327 C-307.175625 325.56720703 -307.175625 325.56720703 -308.375 324.10546875 C-341.66377309 282.54784979 -357.02113706 228.75560178 -355 176 C-354.96422852 175.05753418 -354.92845703 174.11506836 -354.89160156 173.14404297 C-353.05210979 132.01059001 -339.18629263 90.51217844 -315 57 C-314.58057129 56.40687012 -314.16114258 55.81374023 -313.72900391 55.20263672 C-305.99626442 44.30160283 -297.35770018 34.52931824 -288 25 C-287.39768555 24.38374756 -286.79537109 23.76749512 -286.17480469 23.13256836 C-281.10014411 17.98990678 -275.65466908 13.49416837 -270 9 C-269.04480469 8.21625 -268.08960938 7.4325 -267.10546875 6.625 C-241.51020569 -13.8774957 -210.73367154 -27.41929545 -179 -35 C-177.79214844 -35.2990625 -176.58429688 -35.598125 -175.33984375 -35.90625 C-116.53807241 -49.16482302 -48.76391526 -35.45172233 0 0 Z M-182.0625 -18.25 C-182.96822754 -17.99395996 -183.87395508 -17.73791992 -184.80712891 -17.47412109 C-199.92813937 -13.09691705 -214.13287896 -7.43141688 -228 0 C-228.65564941 0.34256836 -229.31129883 0.68513672 -229.98681641 1.03808594 C-245.86700713 9.35203795 -259.51881265 20.27321375 -273 32 C-271.54562018 35.4522384 -269.66842721 37.3544843 -266.875 39.8125 C-263.92263408 42.69508273 -263.08371842 43.5814079 -262.25 47.75 C-263.11220272 51.48621179 -263.8303677 52.85835656 -267 55 C-269.328125 55.375 -269.328125 55.375 -272 55 C-274.53515625 53.06640625 -274.53515625 53.06640625 -277.0625 50.5625 C-280.91563892 46.62112421 -280.91563892 46.62112421 -286 45 C-300.52622473 62.19287468 -312.49025402 80.5888379 -322 101 C-322.30147949 101.64066406 -322.60295898 102.28132813 -322.91357422 102.94140625 C-327.09350357 111.97169552 -330.10602705 121.22502244 -332.75 130.8125 C-333.03174072 131.81845215 -333.31348145 132.8244043 -333.60375977 133.86083984 C-337.87292542 150.01767627 -339.50804501 166.10847255 -339.39111328 182.78173828 C-339.37500277 185.49953342 -339.39109631 188.2158424 -339.41015625 190.93359375 C-339.43192701 207.67465167 -337.32374013 223.85684962 -332.8125 240 C-332.51206787 241.09103027 -332.21163574 242.18206055 -331.90209961 243.30615234 C-323.02659348 274.56565295 -307.21626459 303.26063452 -285 327 C-281.51450718 325.5129613 -279.34706832 323.48151616 -276.6875 320.8125 C-272.52797417 317.01676108 -272.52797417 317.01676108 -268.0625 316.875 C-265 318 -265 318 -263 320 C-262.27292491 323.39301707 -262.00183982 324.77190749 -263 328 C-266.01134508 331.70627087 -269.40431939 334.86662118 -273 338 C-270.62660656 343.93348359 -264.8877114 347.19776529 -260 351 C-259.06542969 351.73734375 -258.13085938 352.4746875 -257.16796875 353.234375 C-244.36949047 363.10898751 -230.65372077 371.21024946 -216 378 C-215.29601074 378.33241699 -214.59202148 378.66483398 -213.86669922 379.00732422 C-204.16213577 383.54161924 -194.33240876 386.98568032 -184 389.8125 C-182.99340332 390.09037354 -181.98680664 390.36824707 -180.94970703 390.65454102 C-165.15613915 394.77661959 -149.64576799 396.5051406 -133.34863281 396.39111328 C-130.6329498 396.37504703 -127.91876325 396.39106651 -125.203125 396.41015625 C-108.0581835 396.43226729 -91.27712943 394.34118753 -74.6875 389.9375 C-73.56287354 389.64077393 -72.43824707 389.34404785 -71.27954102 389.03833008 C-41.83238417 380.91946097 -15.12105178 365.81804438 8 346 C8.73476563 345.37609375 9.46953125 344.7521875 10.2265625 344.109375 C11.82424219 342.74720985 13.41339945 341.37505381 15 340 C13.54814698 336.54611808 11.68492432 334.68728203 8.875 332.25 C6.0194485 329.47232718 4.41426526 327.74186522 4.25 323.6875 C5 320 5 320 6.6875 318 C9.47140836 316.79614773 10.98343296 316.62127771 14 317 C16.5703125 318.8984375 16.5703125 318.8984375 19.125 321.375 C21.70841987 323.84848711 24.0190147 326.01267646 27 328 C52.24026578 300.23570764 68.79947673 266.408228 77.125 230 C77.28379639 229.31292969 77.44259277 228.62585938 77.60620117 227.91796875 C80.68381202 213.95620337 81.47647596 200.31119267 81.5 186.0625 C81.50267883 185.09933868 81.50535767 184.13617737 81.50811768 183.14382935 C81.49749934 165.43372495 79.54072258 149.15473224 75 132 C74.76506836 131.08621582 74.53013672 130.17243164 74.28808594 129.23095703 C65.86136409 97.33330031 48.5247343 68.71534757 27 44 C26.56429688 44.37511719 26.12859375 44.75023438 25.6796875 45.13671875 C24.43478055 46.20647646 23.18442391 47.26991357 21.9296875 48.328125 C20.73464611 49.36350499 19.56618954 50.4316305 18.4453125 51.546875 C15.5627947 54.32032456 14.31718837 55 10.25 55 C7 54 7 54 5 51 C4.42376873 46.59080183 4.45631273 44.71358954 7.1875 41.12890625 C8.115625 40.28199219 9.04375 39.43507812 10 38.5625 C10.928125 37.69753906 11.85625 36.83257812 12.8125 35.94140625 C13.8953125 34.98041016 13.8953125 34.98041016 15 34 C13.44706696 29.96798711 10.61808697 27.62254836 7.375 24.9375 C6.80233398 24.45998291 6.22966797 23.98246582 5.63964844 23.49047852 C-1.24721204 17.8484652 -8.52307253 12.82313978 -16 8 C-16.6595166 7.57332031 -17.3190332 7.14664063 -17.99853516 6.70703125 C-50.84266946 -14.24873542 -88.55255472 -24.15575355 -127.24829102 -24.24023438 C-129.90088155 -24.24986702 -132.55267075 -24.28094427 -135.20507812 -24.3125 C-151.11835746 -24.41183279 -166.73695461 -22.69205415 -182.0625 -18.25 Z "
        fill="#1a73e8"
        transform="translate(385,70)"
      />
      <path
        d="M0 0 C2 2 2 2 2.31518555 4.74243164 C1.94545682 8.56372553 0.84591666 10.78698955 -1.04296875 14.12109375 C-1.52242447 14.97969246 -1.52242447 14.97969246 -2.01156616 15.8556366 C-3.05830066 17.72325579 -4.12265902 19.58015498 -5.1875 21.4375 C-5.92489212 22.74528583 -6.66112602 24.05372536 -7.39624023 25.36279297 C-9.24266128 28.64434301 -11.10311355 31.91767318 -12.96838379 35.1885376 C-14.46294045 37.81289844 -15.94647221 40.44343528 -17.4296875 43.07421875 C-18.99408453 45.84773115 -20.55987865 48.62038021 -22.13134766 51.38989258 C-26.32216654 58.77571135 -30.44789443 66.19650267 -34.5625 73.625 C-40.38024936 84.12025845 -46.20862253 94.61251166 -52.2734375 104.96777344 C-53.64075811 107.36909158 -54.94206572 109.78218905 -56.2265625 112.22753906 C-63.00646147 124.86574945 -71.29282414 134.73320604 -81.5 144.75 C-82.64900787 145.89255753 -82.64900787 145.89255753 -83.82122803 147.05819702 C-96.16454598 159.2611809 -108.03330756 168.16880197 -123.83984375 175.49023438 C-129.25201584 178.07590126 -134.41896712 181.08924791 -139.625 184.0625 C-141.68649179 185.22054659 -143.74898855 186.37680606 -145.8125 187.53125 C-146.83085937 188.10230469 -147.84921875 188.67335938 -148.8984375 189.26171875 C-152.03552164 191.01990823 -155.17381873 192.77591344 -158.3125 194.53125 C-167.55811081 199.70276588 -176.8005553 204.8793097 -186.01928711 210.09863281 C-187.9423506 211.18686183 -189.86632106 212.27348988 -191.79125977 213.35839844 C-196.2853003 215.89142451 -200.76764396 218.44073813 -205.2265625 221.03515625 C-206.83851416 221.96098539 -208.45049186 222.88676919 -210.0625 223.8125 C-210.78236084 224.23950195 -211.50222168 224.66650391 -212.24389648 225.10644531 C-216.28675466 227.41001861 -219.20897347 228.7047721 -224 228 C-226 226 -226 226 -226.44921875 223.49609375 C-225.78755531 218.3466261 -223.3722965 214.52457044 -220.8125 210.0625 C-220.27222168 209.09739502 -219.73194336 208.13229004 -219.17529297 207.13793945 C-217.46236281 204.08491657 -215.73205505 201.04220551 -214 198 C-212.93259732 196.10733244 -211.86616868 194.21411518 -210.80078125 192.3203125 C-208.65627683 188.51318876 -206.5045556 184.71027067 -204.34765625 180.91015625 C-200.89757993 174.8272069 -197.47702102 168.727963 -194.0625 162.625 C-193.48201904 161.58770752 -192.90153809 160.55041504 -192.3034668 159.48168945 C-190.53526534 156.32133823 -188.76754537 153.1607182 -187 150 C-185.82037124 147.89059215 -184.64068381 145.78121711 -183.4609375 143.671875 C-182.88061768 142.63232666 -182.30029785 141.59277832 -181.70239258 140.52172852 C-180.52001769 138.4136043 -179.3296574 136.30994011 -178.1315918 134.21069336 C-175.3965916 129.40207868 -172.77731515 124.62361363 -170.49609375 119.58203125 C-156.46522601 89.85799879 -127.68931427 65.16103088 -98.24560547 51.54443359 C-93.09155198 49.09185782 -88.18689972 46.23327226 -83.25 43.375 C-81.38910184 42.3171066 -79.52712481 41.26110869 -77.6640625 40.20703125 C-76.74012695 39.68318848 -75.81619141 39.1593457 -74.86425781 38.61962891 C-69.79303104 35.75204295 -64.7090728 32.90723021 -59.625 30.0625 C-58.07582886 29.19564575 -58.07582886 29.19564575 -56.49536133 28.3112793 C-54.39590535 27.13675276 -52.29637693 25.96235573 -50.19677734 24.78808594 C-45.85011644 22.35682395 -41.50414725 19.92432963 -37.15893555 17.49047852 C-35.0350441 16.30177534 -32.91022684 15.11472462 -30.78442383 13.92944336 C-26.19345749 11.36693273 -21.61603515 8.78998124 -17.0859375 6.12109375 C-16.35383057 5.69417236 -15.62172363 5.26725098 -14.86743164 4.82739258 C-13.55287077 4.0582097 -12.24409471 3.27899803 -10.94311523 2.48706055 C-7.1553497 0.282369 -4.37561216 -0.56990607 0 0 Z "
        fill="#f7414e"
        transform="translate(368,142)"
      />
      <path
        d="M0 0 C8.59297574 10.41803254 11.30777486 26.31795054 14.31835938 39.13574219 C14.74292712 40.9197783 15.18406466 42.70005374 15.65039062 44.47363281 C22.8366767 71.88418114 21.54677521 105.56452463 15 133 C14.83983398 133.68465332 14.67966797 134.36930664 14.51464844 135.07470703 C13.53436709 139.11966839 12.30299312 143.04928777 11 147 C10.62091775 148.29606507 10.24477877 149.59299349 9.87109375 150.890625 C1.30951539 179.61355443 -14.56804532 207.90233924 -36 229 C-36.61488281 228.37351562 -37.22976563 227.74703125 -37.86328125 227.1015625 C-38.67152344 226.28429687 -39.47976563 225.46703125 -40.3125 224.625 C-41.11300781 223.81289063 -41.91351563 223.00078125 -42.73828125 222.1640625 C-45.00009937 219.87395158 -45.00009937 219.87395158 -48 218 C-53.04001408 218.23212966 -53.04001408 218.23212966 -57 221 C-57.72707509 224.39301707 -57.99816018 225.77190749 -57 229 C-53.98865492 232.70627087 -50.59568061 235.86662118 -47 239 C-48.55293304 243.03201289 -51.38191303 245.37745164 -54.625 248.0625 C-55.19766602 248.54001709 -55.77033203 249.01753418 -56.36035156 249.50952148 C-63.24721204 255.1515348 -70.52307253 260.17686022 -78 265 C-78.9892749 265.64001953 -78.9892749 265.64001953 -79.99853516 266.29296875 C-96.64999592 276.91721365 -114.95174521 284.8195123 -134 290 C-135.87945312 290.53367187 -135.87945312 290.53367187 -137.796875 291.078125 C-155.72276044 296.00166622 -173.84652937 297.56645356 -192.375 297.4375 C-193.31088959 297.43445862 -194.24677917 297.43141724 -195.21102905 297.42828369 C-209.5011398 297.3598073 -223.09854997 296.52328458 -237 293 C-238.34698975 292.68651611 -238.34698975 292.68651611 -239.72119141 292.36669922 C-253.83691845 289.07853038 -266.89639285 284.15456407 -280 278 C-280.75603516 277.64615234 -281.51207031 277.29230469 -282.29101562 276.92773438 C-290.90056964 272.85678764 -299.13713991 268.39673097 -307 263 C-307.82346924 262.43925781 -307.82346924 262.43925781 -308.66357422 261.8671875 C-315.83391308 256.96168671 -322.57047888 251.87485689 -328.9140625 245.91015625 C-330.86141091 244.12691024 -332.86047653 242.54413572 -335 241 C-334.01 239.02 -334.01 239.02 -333 237 C-332.42636719 237.38929688 -331.85273438 237.77859375 -331.26171875 238.1796875 C-294.33271764 262.50015257 -252.79594386 272.91156586 -209 274 C-209.495 272.515 -209.495 272.515 -210 271 C-210.56 264.84 -210.56 264.84 -208.375 261.5625 C-205.13359249 259.42999506 -203.84177075 259.27513759 -200 260 C-198.53368739 260.95725314 -197.09835715 261.96274962 -195.6875 263 C-191.63409203 265.90802873 -188.88611758 266.61875775 -183.9453125 266.40625 C-181.68735109 266.0608798 -181.68735109 266.0608798 -179 264 C-179.96715762 261.54483407 -180.55125314 260.25771992 -182.87597656 258.92260742 C-183.62331055 258.65295166 -184.37064453 258.3832959 -185.140625 258.10546875 C-185.96433594 257.78900391 -186.78804687 257.47253906 -187.63671875 257.14648438 C-189.36135371 256.51360264 -191.08789325 255.88588394 -192.81640625 255.26367188 C-199.7746604 252.57451767 -203.77907579 249.03804403 -207.375 242.5 C-208.8763219 236.4947124 -208.12637099 232.10929007 -205.19921875 226.7890625 C-203.47426153 224.21567355 -201.59811933 222.67021957 -199 221 C-198.154375 220.4225 -197.30875 219.845 -196.4375 219.25 C-188.59521061 216.3982584 -180.69201612 217.3501345 -173.203125 220.8046875 C-169.83637943 222.63132605 -167.5663047 224.09602363 -165 227 C-164.29498077 231.01860959 -164.35225349 232.98951544 -166.5625 236.4375 C-169.93227241 238.59761052 -172.06243106 238.4835611 -176 238 C-177.1446875 237.2575 -177.1446875 237.2575 -178.3125 236.5 C-182.39392015 234.22199806 -186.42388397 234.76008712 -191 235 C-191 235.99 -191 236.98 -191 238 C-190.46109131 238.20568604 -189.92218262 238.41137207 -189.36694336 238.62329102 C-186.88264058 239.58403725 -184.41046341 240.57295016 -181.9375 241.5625 C-180.66616211 242.04686523 -180.66616211 242.04686523 -179.36914062 242.54101562 C-172.46136879 245.34146366 -167.02228306 249.04335924 -163.5625 255.8125 C-163.04889417 258.72293302 -162.94329127 261.25610834 -162.96484375 264.19921875 C-162.96991943 265.09858154 -162.97499512 265.99794434 -162.98022461 266.92456055 C-162.98675049 267.60945557 -162.99327637 268.29435059 -163 269 C-158.1795157 267.45198509 -153.36433441 265.88865832 -148.55297852 264.3125 C-146.92438628 263.78118396 -145.29454447 263.25367906 -143.66333008 262.73046875 C-128.89908678 257.98986578 -114.69393762 252.21017228 -101.375 244.1875 C-100.68245117 243.7742749 -99.98990234 243.3610498 -99.27636719 242.93530273 C-86.95412043 235.44792387 -75.84444442 226.46004726 -65 217 C-64.154375 216.278125 -63.30875 215.55625 -62.4375 214.8125 C-57.49023867 210.5337875 -53.20116594 206.00219961 -49 201 C-48.18917969 200.08863281 -47.37835938 199.17726563 -46.54296875 198.23828125 C-26.4282642 175.46774701 -11.13591083 147.2588344 -3 118 C-3.60996826 118.02618408 -4.21993652 118.05236816 -4.84838867 118.0793457 C-7.62782758 118.18365719 -10.40685439 118.24842982 -13.1875 118.3125 C-14.14720703 118.35439453 -15.10691406 118.39628906 -16.09570312 118.43945312 C-17.49272461 118.46362305 -17.49272461 118.46362305 -18.91796875 118.48828125 C-20.19837036 118.52755737 -20.19837036 118.52755737 -21.50463867 118.56762695 C-25.46784651 117.66610477 -26.6920677 116.36346485 -29 113 C-29.745527 108.88676883 -29.70040552 104.82719966 -29.6640625 100.65625 C-29.66884613 99.45440063 -29.67362976 98.25255127 -29.67855835 97.01428223 C-29.68195753 94.47581675 -29.67275412 91.93730751 -29.65185547 89.39892578 C-29.62509406 85.51365537 -29.65160683 81.63127431 -29.68359375 77.74609375 C-29.68028966 75.27863946 -29.67388345 72.81118696 -29.6640625 70.34375 C-29.67418365 69.18218384 -29.68430481 68.02061768 -29.69473267 66.82385254 C-29.57898113 58.85807608 -29.57898113 58.85807608 -26.81762695 54.765625 C-23.64389608 52.77685265 -21.97192058 52.37943373 -18.25390625 52.40625 C-17.16916016 52.40882813 -16.08441406 52.41140625 -14.96679688 52.4140625 C-13.84337891 52.44242188 -12.71996094 52.47078125 -11.5625 52.5 C-9.88317383 52.49613281 -9.88317383 52.49613281 -8.16992188 52.4921875 C-2.18550499 52.56321915 1.68707517 53.03189658 7 56 C5.6330112 39.79299343 4.16178292 23.82588085 0.76953125 7.89453125 C0 4 0 4 0 0 Z "
        fill="#C3E1FE"
        transform="translate(447,169)"
      />
      <path
        d="M0 0 C1.29808594 -0.01611328 2.59617187 -0.03222656 3.93359375 -0.04882812 C11.8269297 -0.05281064 18.66759261 0.7075768 26.125 3.3125 C26.86379395 3.56878174 27.60258789 3.82506348 28.36376953 4.08911133 C30.3447224 4.81099973 32.29750077 5.57976334 34.25 6.375 C34.90742188 6.63087891 35.56484375 6.88675781 36.2421875 7.15039062 C40.99991415 9.0623283 40.99991415 9.0623283 42.125 11.3125 C41.50794189 11.6434668 40.89088379 11.97443359 40.25512695 12.31542969 C29.0229686 18.34826439 17.81740842 24.41881373 6.75 30.75 C5.92669189 31.22083008 5.10338379 31.69166016 4.25512695 32.17675781 C2.654229 33.09713185 1.05814711 34.02593467 -0.53295898 34.96313477 C-2.03613923 35.82919097 -3.56110752 36.65903939 -5.10961914 37.44116211 C-14.61070408 42.50461456 -22.00401403 50.4738947 -29.5625 58 C-30.32300659 58.75481659 -31.08351318 59.50963318 -31.86706543 60.287323 C-44.137038 72.56976834 -52.93501421 84.24456526 -60.29638672 100.03515625 C-63.15249291 105.96469067 -66.44507018 111.65052227 -69.6875 117.375 C-70.28208008 118.44693604 -70.87666016 119.51887207 -71.48925781 120.62329102 C-72.03549805 121.60483154 -72.58173828 122.58637207 -73.14453125 123.59765625 C-73.62510986 124.46269775 -74.10568848 125.32773926 -74.60083008 126.21899414 C-75.875 128.3125 -75.875 128.3125 -77.875 130.3125 C-88.26140035 110.27865268 -91.75845405 87.35857519 -86.375 65.0625 C-78.7569193 41.83139171 -63.64401381 21.3103101 -41.71899414 9.98681641 C-27.65792168 2.94070594 -15.86682327 -0.039158 0 0 Z "
        fill="#1a73e8"
        transform="translate(255.875,167.6875)"
      />
      <path
        d="M0 0 C2.84942262 2.46011197 4.06785602 4.9810756 5.5 8.4375 C5.9021875 9.38496094 6.304375 10.33242187 6.71875 11.30859375 C10.2574747 21.50400485 11.5550521 30.89591181 11.5 41.6875 C11.49790527 42.34574768 11.49581055 43.00399536 11.49365234 43.68218994 C11.4224076 54.5638358 10.39289948 64.03287418 6 74 C5.6999707 74.69254883 5.39994141 75.38509766 5.09082031 76.09863281 C1.3575845 84.51268417 -2.8968788 92.05786878 -9 99 C-9.59167969 99.73347656 -10.18335938 100.46695313 -10.79296875 101.22265625 C-20.0383764 112.33620812 -31.87972233 119.38818321 -45 125 C-45.62374512 125.27392578 -46.24749023 125.54785156 -46.89013672 125.83007812 C-63.70332251 132.88975835 -86.71574603 132.96191886 -103.91796875 127.2890625 C-109.09433507 125.12404237 -114.10145616 122.73661667 -119 120 C-115.98434074 117.62461847 -112.87384639 115.73151898 -109.51171875 113.8828125 C-107.88266602 112.9851416 -107.88266602 112.9851416 -106.22070312 112.06933594 C-105.35844116 111.59602844 -105.35844116 111.59602844 -104.47875977 111.11315918 C-102.64789202 110.10315002 -100.82429993 109.0809589 -99.00195312 108.05566406 C-93.51983307 104.98079404 -88.05464289 101.96520085 -82.33203125 99.3515625 C-53.01824954 85.44184368 -29.11208745 57.37389394 -15.61767578 28.36279297 C-12.88647857 22.6852333 -9.71204857 17.26552677 -6.5625 11.8125 C-5.49956901 9.94499577 -4.43819417 8.07660431 -3.37890625 6.20703125 C-2.9413501 5.4385083 -2.50379395 4.66998535 -2.05297852 3.87817383 C-1.33768598 2.60232281 -0.65413137 1.30826273 0 0 Z "
        fill="#1a73e8"
        transform="translate(333,214)"
      />
      <path
        d="M0 0 C4.17570942 1.36659581 5.09123176 2.45321114 7.4375 6.125 C8.30713192 8.94304773 8.76221912 11.77307513 9.1875 14.6875 C9.31253906 15.44224609 9.43757813 16.19699219 9.56640625 16.97460938 C10.1176579 20.41236007 10.4375 23.6360691 10.4375 27.125 C11.0975 27.125 11.7575 27.125 12.4375 27.125 C12.55609375 26.12726563 12.6746875 25.12953125 12.796875 24.1015625 C13.37123714 20.11115142 14.43551546 16.32594035 15.6875 12.5 C15.87957031 11.85804688 16.07164063 11.21609375 16.26953125 10.5546875 C17.76129372 5.97619639 19.6753284 3.12783421 23.4375 0.125 C26.80584596 0.125 29.1723248 0.24321123 31.984375 2.203125 C34.18543929 5.11421002 35.04166133 8.42179264 36.0625 11.875 C36.2790625 12.5659375 36.495625 13.256875 36.71875 13.96875 C38.05145681 18.34529335 38.90231063 22.58183687 39.4375 27.125 C40.0975 27.125 40.7575 27.125 41.4375 27.125 C41.540625 25.92875 41.64375 24.7325 41.75 23.5 C42.2442879 19.24099881 42.90769979 15.02870792 43.6875 10.8125 C43.89890625 9.64074219 44.1103125 8.46898437 44.328125 7.26171875 C45.66337936 3.48633406 47.03831773 2.17972958 50.4375 0.125 C54.0625 0.125 54.0625 0.125 57.4375 1.125 C59.49707339 3.22795752 60.37761648 4.47072741 60.64794922 7.42431641 C59.68045125 16.65004052 57.9477654 25.70517797 56.10888672 34.79052734 C55.55984618 37.51316 55.0274383 40.23870893 54.49609375 42.96484375 C54.14682662 44.71374033 53.7966002 46.46244566 53.4453125 48.2109375 C53.28894318 49.01727631 53.13257385 49.82361511 52.97146606 50.65438843 C50.76959908 61.35582139 50.76959908 61.35582139 46.625 64.5 C43.63448027 65.35443421 41.53836727 65.56798104 38.4375 65.125 C32.6156256 60.87911071 31.48261152 55.02532573 29.625 48.3125 C29.15803711 46.70084961 29.15803711 46.70084961 28.68164062 45.05664062 C27.91895422 42.41657231 27.17152473 39.77315252 26.4375 37.125 C24.61276251 39.86210624 23.9078052 41.5551241 23.0703125 44.65234375 C22.82410156 45.52697266 22.57789062 46.40160156 22.32421875 47.30273438 C21.81795817 49.13695539 21.31791387 50.97290392 20.82421875 52.81054688 C18.45916746 61.137243 18.45916746 61.137243 14.4375 64.125 C11.54888291 65.56930855 9.64102299 65.50188506 6.4375 65.125 C1.41727972 61.54683992 0.57049172 57.89011974 -0.52661133 51.96240234 C-0.70345459 50.90230957 -0.88029785 49.8422168 -1.0625 48.75 C-1.4704329 46.50480323 -1.88064446 44.26001945 -2.29296875 42.015625 C-2.49841309 40.87416016 -2.70385742 39.73269531 -2.91552734 38.55664062 C-4.11081919 32.21663226 -5.57473581 25.93348642 -7.0390625 19.65087891 C-8.14544722 14.7354971 -9.00591507 10.19819005 -8.5625 5.125 C-5.91434712 1.27314127 -4.72054682 0.16563322 0 0 Z "
        fill="#1a73e8"
        transform="translate(66.5625,221.875)"
      />
      <path
        d="M0 0 C7.62015319 2.67373796 11.8979404 11.42003327 16.25 17.875 C16.81783203 18.70773438 17.38566406 19.54046875 17.97070312 20.3984375 C20.61450885 24.2913097 23.16471889 28.19932771 25.5625 32.25 C25.5718457 31.42274414 25.58119141 30.59548828 25.59082031 29.74316406 C25.64450319 25.99483585 25.7281571 22.24775838 25.8125 18.5 C25.82667969 17.19804688 25.84085937 15.89609375 25.85546875 14.5546875 C25.88769531 13.30429688 25.91992188 12.05390625 25.953125 10.765625 C25.97407227 9.61352539 25.99501953 8.46142578 26.01660156 7.27441406 C26.67083486 3.64979775 27.65926738 2.45286244 30.5625 0.25 C34.39256919 -0.48341751 35.96096595 -0.14952759 39.21459961 2.01147461 C43.19001819 6.23769529 42.25325485 12.19564885 42.19140625 17.62890625 C42.19381821 18.83312729 42.19623016 20.03734833 42.19871521 21.27806091 C42.19773672 23.82074277 42.18434301 26.36344592 42.15942383 28.90600586 C42.12509249 32.8020036 42.13877324 36.69573666 42.15820312 40.59179688 C42.15130552 43.06250967 42.14163393 45.53321661 42.12890625 48.00390625 C42.13386612 49.1706337 42.13882599 50.33736115 42.14393616 51.53944397 C42.12018166 53.16649513 42.12018166 53.16649513 42.09594727 54.82641602 C42.08974869 55.77952164 42.08355011 56.73262726 42.0771637 57.71461487 C41.40603126 61.02081115 40.20336041 62.20444479 37.5625 64.25 C32.72243057 65.20214481 32.72243057 65.20214481 29.5625 64.25 C23.10121479 59.29494032 18.9283282 50.9823519 14.5625 44.25 C12.56888445 41.24572785 10.56683693 38.24712765 8.5625 35.25 C8.54791748 35.95084717 8.53333496 36.65169434 8.51831055 37.3737793 C8.44364513 40.56223009 8.34704525 43.74965513 8.25 46.9375 C8.22744141 48.04029297 8.20488281 49.14308594 8.18164062 50.27929688 C8.14619141 51.34599609 8.11074219 52.41269531 8.07421875 53.51171875 C8.04803467 54.49100342 8.02185059 55.47028809 7.99487305 56.47924805 C7.49323737 59.69385182 6.45919973 61.62601402 4.5625 64.25 C1.72166359 65.67041821 -0.29227278 65.56452272 -3.4375 65.25 C-5.74025556 63.3829009 -7.11573871 61.89352259 -8.4375 59.25 C-8.5533454 57.55115232 -8.60707147 55.84789713 -8.63037109 54.14526367 C-8.64643402 53.08043259 -8.66249695 52.0156015 -8.67904663 50.91850281 C-8.72343193 46.04650454 -8.76455853 41.17464331 -8.78759766 36.30249023 C-8.80416521 33.73110916 -8.83146529 31.15977428 -8.86962891 28.58862305 C-8.92432553 24.88566133 -8.94626159 21.18377975 -8.9609375 17.48046875 C-8.98360687 16.3313652 -9.00627625 15.18226166 -9.02963257 13.99833679 C-9.00854703 6.05039212 -9.00854703 6.05039212 -6.11962891 2.0012207 C-3.4375 0.25 -3.4375 0.25 0 0 Z "
        fill="#1a73e8"
        transform="translate(243.4375,59.75)"
      />
      <path
        d="M0 0 C3.36674557 1.82663855 5.6368203 3.29133613 8.203125 6.1953125 C8.90814423 10.21392209 8.85087151 12.18482794 6.640625 15.6328125 C3.27085259 17.79292302 1.14069394 17.6788736 -2.796875 17.1953125 C-3.56 16.7003125 -4.323125 16.2053125 -5.109375 15.6953125 C-9.19079515 13.41731056 -13.22075897 13.95539962 -17.796875 14.1953125 C-17.796875 15.1853125 -17.796875 16.1753125 -17.796875 17.1953125 C-17.25796631 17.40099854 -16.71905762 17.60668457 -16.16381836 17.81860352 C-13.67951558 18.77934975 -11.20733841 19.76826266 -8.734375 20.7578125 C-7.88681641 21.08072266 -7.03925781 21.40363281 -6.16601562 21.73632812 C0.79739374 24.55933192 6.32180215 28.26907351 9.640625 35.1953125 C10.86739096 41.73806428 10.53435964 47.38337121 7.203125 53.1953125 C2.51601505 58.70080672 -3.27636515 61.64552076 -10.3984375 62.51171875 C-19.98027774 62.93008079 -27.45816524 59.97588183 -34.51953125 53.5625 C-36.66079374 51.27062884 -36.81224617 50.0293039 -37.109375 46.8203125 C-36.796875 43.1953125 -36.796875 43.1953125 -35.171875 40.7578125 C-31.93046749 38.62530756 -30.63864575 38.47045009 -26.796875 39.1953125 C-25.33056239 40.15256564 -23.89523215 41.15806212 -22.484375 42.1953125 C-18.43096703 45.10334123 -15.68299258 45.81407025 -10.7421875 45.6015625 C-8.48422609 45.2561923 -8.48422609 45.2561923 -5.796875 43.1953125 C-6.76403262 40.74014657 -7.34812814 39.45303242 -9.67285156 38.11791992 C-10.42018555 37.84826416 -11.16751953 37.5786084 -11.9375 37.30078125 C-12.76121094 36.98431641 -13.58492188 36.66785156 -14.43359375 36.34179688 C-16.15822871 35.70891514 -17.88476825 35.08119644 -19.61328125 34.45898438 C-26.5715354 31.76983017 -30.57595079 28.23335653 -34.171875 21.6953125 C-35.6731969 15.6900249 -34.92324599 11.30460257 -31.99609375 5.984375 C-30.27113653 3.41098605 -28.39499433 1.86553207 -25.796875 0.1953125 C-24.95125 -0.3821875 -24.105625 -0.9596875 -23.234375 -1.5546875 C-15.39208561 -4.4064291 -7.48889112 -3.454553 0 0 Z "
        fill="#1a73e8"
        transform="translate(273.796875,389.8046875)"
      />
      <path
        d="M0 0 C1.6406543 0.01063477 1.6406543 0.01063477 3.31445312 0.02148438 C4.44689453 0.05435547 5.57933594 0.08722656 6.74609375 0.12109375 C7.88240234 0.12689453 9.01871094 0.13269531 10.18945312 0.13867188 C19.71889454 0.27922411 19.71889454 0.27922411 23.18359375 2.55859375 C25.18359375 5.55859375 25.18359375 5.55859375 24.93359375 9.05859375 C24.18359375 12.55859375 24.18359375 12.55859375 22.18359375 15.55859375 C18.56491816 16.76481895 15.25853124 16.66676293 11.49609375 16.62109375 C10.79419922 16.61658203 10.09230469 16.61207031 9.36914062 16.60742188 C7.64058837 16.59566302 5.9120801 16.57772829 4.18359375 16.55859375 C4.18359375 19.52859375 4.18359375 22.49859375 4.18359375 25.55859375 C5.22 25.5121875 6.25640625 25.46578125 7.32421875 25.41796875 C8.69398154 25.380441 10.06377557 25.34404191 11.43359375 25.30859375 C12.45646484 25.25832031 12.45646484 25.25832031 13.5 25.20703125 C16.94200701 25.14019616 18.82592289 25.29660554 21.63671875 27.35546875 C23.89418284 30.57064487 23.7310433 32.72644688 23.18359375 36.55859375 C21.63671875 38.76171875 21.63671875 38.76171875 19.18359375 40.55859375 C16.44676404 40.84974585 14.14419336 40.94181793 11.43359375 40.80859375 C10.73621094 40.79054688 10.03882813 40.7725 9.3203125 40.75390625 C7.60747836 40.70697929 5.89535551 40.6352398 4.18359375 40.55859375 C4.18359375 43.85859375 4.18359375 47.15859375 4.18359375 50.55859375 C5.364375 50.5121875 6.54515625 50.46578125 7.76171875 50.41796875 C9.31898509 50.38044426 10.87627883 50.34404482 12.43359375 50.30859375 C13.21089844 50.27507812 13.98820312 50.2415625 14.7890625 50.20703125 C18.56971965 50.14240463 20.55297414 50.12238294 23.73046875 52.3203125 C25.34225042 54.8029762 25.62806426 55.73759128 25.18359375 58.62109375 C25.10109375 59.29269531 25.01859375 59.96429688 24.93359375 60.65625 C23.88872456 63.30651717 22.6097746 64.08492676 20.18359375 65.55859375 C15.89544657 66.21066812 11.57857582 66.06802757 7.24609375 66.05859375 C6.06595703 66.08695312 4.88582031 66.1153125 3.66992188 66.14453125 C2.53103516 66.14710938 1.39214844 66.1496875 0.21875 66.15234375 C-0.81886475 66.15943359 -1.85647949 66.16652344 -2.92553711 66.17382812 C-7.14068841 65.2767602 -8.40567622 64.16122786 -10.81640625 60.55859375 C-11.55629252 56.44394304 -11.51681674 52.38636384 -11.48046875 48.21484375 C-11.48525238 47.01299438 -11.49003601 45.81114502 -11.4949646 44.57287598 C-11.49836378 42.0344105 -11.48916037 39.49590126 -11.46826172 36.95751953 C-11.44150031 33.07224912 -11.46801308 29.18986806 -11.5 25.3046875 C-11.49669591 22.83723321 -11.4902897 20.36978071 -11.48046875 17.90234375 C-11.4905899 16.74077759 -11.50071106 15.57921143 -11.51113892 14.38244629 C-11.39542177 6.41903639 -11.39542177 6.41903639 -8.63842773 2.32202148 C-5.43521232 0.32039289 -3.75012464 -0.05067326 0 0 Z "
        fill="#1a73e8"
        transform="translate(428.81640625,221.44140625)"
      />
      <path
        d="M0 0 C3.80333334 2.2386338 7.00833378 5.01666757 9 9 C9.71826164 16.10019289 9.49520648 21.32184445 5 27 C0.64429888 30.293335 -3.90817833 30.6789196 -9.234375 30.5625 C-13.98439483 29.59639427 -16.93756016 26.61924708 -20 23 C-22.13410049 18.73179902 -21.72505524 13.60927974 -21 9 C-15.9367839 0.39783443 -9.66321677 -1.52005657 0 0 Z "
        fill="#D8EAFC"
        transform="translate(262,241)"
      />
      <path
        d="M0 0 C0.05386629 2.12472576 0.09273071 4.24983652 0.125 6.375 C0.14820313 7.55835938 0.17140625 8.74171875 0.1953125 9.9609375 C0 13 0 13 -2 15 C-2.99 14.34 -3.98 13.68 -5 13 C-7.58885171 12.70008931 -10.09149082 12.49134775 -12.6875 12.375 C-13.7403418 12.31699219 -13.7403418 12.31699219 -14.81445312 12.2578125 C-16.54254655 12.1637666 -18.27123675 12.0808032 -20 12 C-20 9.03 -20 6.06 -20 3 C-18.96359375 2.95101562 -17.9271875 2.90203125 -16.859375 2.8515625 C-15.48955792 2.77650403 -14.11976752 2.70095753 -12.75 2.625 C-12.06808594 2.5940625 -11.38617188 2.563125 -10.68359375 2.53125 C-6.97935714 2.31546923 -3.26856059 0 0 0 Z "
        fill="#D4EAFE"
        transform="translate(453,235)"
      />
      <path
        d="M0 0 C1.76015574 3.52031148 -0.10190791 7.30197375 -1 11 C-5.95 11 -10.9 11 -16 11 C-16 8.36 -16 5.72 -16 3 C-15.18015625 2.95101563 -14.3603125 2.90203125 -13.515625 2.8515625 C-12.43796875 2.77679688 -11.3603125 2.70203125 -10.25 2.625 C-9.18265625 2.55539062 -8.1153125 2.48578125 -7.015625 2.4140625 C-4.19793568 2.0271777 -2.4169634 1.44313834 0 0 Z "
        fill="#D7EBFE"
        transform="translate(450,260)"
      />
    </svg>
